<svg width="64" height="64" viewBox="0 0 64 64" fill="none" xmlns="http://www.w3.org/2000/svg">
<rect width="64" height="64" rx="14" fill="#236A59"/>
<rect x="9" y="9" width="46" height="46" rx="8" fill="#FFFAF1"/>
<path d="M21 42V23.5C21 19.9 23.4 17 27.6 17C31.2 17 33.5 19.1 34.1 22.1C35.4 20.8 37.1 20 39.2 20C43.5 20 46 23 46 27.2C46 35 39.7 42 31.1 42H21ZM27.2 36.5H31.2C36.1 36.5 39.8 32.5 39.8 27.8C39.8 26.2 38.9 25.3 37.5 25.3C35.3 25.3 34.3 27.1 34.3 30.2H28.5C28.5 25.6 28 22.5 26.3 22.5C25.6 22.5 25.1 23.1 25.1 24.1V36.5H27.2Z" fill="#236A59"/>
<circle cx="48" cy="16" r="4" fill="#D9B95F"/>
</svg>
